<?xml version="1.0" standalone="no"?>
<!DOCTYPE svg PUBLIC "-//W3C//DTD SVG 20010904//EN"
 "http://www.w3.org/TR/2001/REC-SVG-20010904/DTD/svg10.dtd">
<svg version="1.0" xmlns="http://www.w3.org/2000/svg"
 width="896.000000pt" height="896.000000pt" viewBox="0 0 896.000000 896.000000"
 preserveAspectRatio="xMidYMid meet">
<metadata>
Created by potrace 1.14, written by Peter Selinger 2001-2017
</metadata>
<g transform="translate(0.000000,896.000000) scale(0.100000,-0.100000)"
fill="#000000" stroke="none">
<path d="M5491 7240 c-4 -3 -38 -63 -76 -135 -172 -331 -198 -381 -206 -389
-5 -6 -9 -18 -9 -27 0 -10 -4 -19 -8 -21 -5 -1 -47 -77 -93 -168 -46 -91 -86
-167 -89 -170 -3 -3 -22 -39 -43 -80 -20 -41 -80 -156 -132 -255 -53 -99 -110
-209 -128 -245 -17 -36 -34 -67 -37 -70 -3 -3 -25 -43 -48 -90 -24 -47 -70
-134 -102 -195 -31 -60 -86 -165 -121 -233 -35 -67 -94 -179 -131 -250 -37
-70 -96 -183 -130 -252 -35 -69 -66 -127 -69 -130 -3 -3 -19 -32 -36 -65 -17
-33 -55 -107 -85 -165 -30 -58 -77 -148 -104 -200 -27 -52 -52 -96 -56 -98 -5
-2 -8 -12 -8 -23 0 -10 -4 -19 -10 -19 -5 0 -10 -6 -10 -14 0 -8 -7 -22 -16
-30 -8 -9 -12 -16 -9 -16 4 0 -9 -28 -28 -62 -19 -35 -65 -121 -102 -193 -37
-71 -84 -161 -105 -200 -20 -38 -61 -117 -91 -175 -30 -58 -57 -106 -61 -108
-5 -2 -8 -10 -8 -19 0 -8 -6 -21 -14 -28 -11 -12 -49 2 -247 90 -129 57 -239
109 -246 115 -7 5 -16 10 -21 10 -10 0 -80 31 -305 134 -28 13 -92 42 -142 64
-97 43 -154 69 -280 128 -44 20 -84 38 -90 40 -5 1 -109 47 -231 102 -229 104
-269 122 -419 192 -49 23 -94 43 -100 44 -9 3 -44 18 -190 86 -74 34 -159 72
-240 107 -96 42 -104 49 -74 58 13 4 38 13 54 20 17 7 48 19 70 28 77 29 130
50 160 63 17 7 42 16 58 19 15 4 30 11 33 16 3 5 12 9 21 9 8 0 29 6 46 14 18
8 93 37 167 66 74 28 144 55 155 60 11 6 52 21 90 36 63 23 131 49 235 89 37
14 72 27 80 30 13 4 67 26 85 34 11 5 65 26 120 47 55 20 114 43 132 51 17 8
37 16 45 17 7 2 24 8 38 13 14 6 144 57 290 113 146 56 271 107 277 113 11 11
17 38 28 127 2 14 6 41 10 60 6 35 9 55 19 143 3 27 8 52 10 56 2 3 7 35 11
71 3 35 8 67 10 70 2 3 6 28 9 55 3 28 8 59 10 71 2 12 7 45 11 74 4 29 8 61
10 72 2 10 2 18 -1 18 -2 0 -102 -42 -222 -92 -119 -51 -219 -93 -222 -93 -3
0 -21 -8 -40 -17 -19 -9 -80 -35 -135 -58 -55 -23 -118 -50 -140 -60 -22 -9
-80 -34 -130 -55 -49 -20 -103 -43 -120 -50 -16 -7 -41 -17 -55 -23 -14 -6
-47 -20 -75 -32 -27 -12 -59 -26 -70 -31 -11 -4 -112 -47 -225 -94 -113 -48
-218 -92 -235 -100 -16 -7 -149 -63 -295 -125 -146 -62 -285 -121 -310 -132
-44 -20 -76 -33 -115 -49 -23 -9 -88 -37 -159 -68 -27 -11 -55 -21 -62 -21 -8
0 -14 -4 -14 -10 0 -5 -7 -10 -15 -10 -8 0 -49 -16 -91 -35 -41 -19 -78 -35
-81 -35 -17 0 -83 -35 -84 -44 -3 -20 -8 -51 -13 -76 -2 -14 -7 -47 -11 -74
-3 -27 -8 -52 -9 -55 -2 -3 -6 -28 -10 -56 -3 -27 -8 -59 -10 -70 -2 -11 -7
-42 -10 -70 -9 -62 -31 -210 -52 -334 -8 -51 -14 -94 -12 -96 2 -1 77 -39 168
-83 91 -44 229 -111 307 -150 78 -38 144 -68 146 -66 2 3 10 -2 17 -11 7 -8
17 -15 22 -15 4 0 88 -39 186 -86 97 -48 231 -112 297 -144 66 -32 210 -102
320 -155 110 -53 265 -128 345 -166 80 -38 152 -74 160 -79 8 -6 25 -14 37
-19 32 -15 206 -98 403 -194 96 -46 262 -127 368 -178 105 -51 192 -97 192
-102 0 -5 -28 -62 -61 -126 -128 -242 -148 -280 -219 -416 -40 -77 -77 -145
-82 -152 -5 -6 -5 -13 -1 -15 7 -4 896 -3 915 1 3 0 30 47 59 103 28 57 66
130 84 163 18 33 70 132 115 220 46 88 100 192 120 230 21 39 70 133 110 210
40 77 87 167 105 200 47 87 233 444 331 635 32 63 61 117 64 120 3 3 20 34 37
70 18 36 61 119 96 185 35 66 101 192 147 280 153 295 182 350 192 363 6 6 7
12 2 12 -5 0 -4 4 1 8 6 4 23 34 40 67 16 33 38 72 48 88 10 15 15 27 11 27
-3 0 -2 6 4 13 5 6 36 62 67 122 32 61 82 157 113 215 30 58 74 141 96 185 23
44 45 83 49 86 5 3 8 9 8 13 -1 8 69 149 78 156 3 3 14 22 23 43 10 20 22 37
27 37 5 0 26 -9 48 -20 44 -23 246 -117 253 -118 3 0 32 -14 65 -30 33 -17 90
-44 128 -61 37 -17 96 -44 132 -61 36 -16 70 -30 75 -30 6 0 10 -4 10 -10 0
-5 5 -10 11 -10 6 0 49 -18 95 -40 47 -22 86 -40 88 -40 2 0 57 -25 122 -56
66 -31 151 -71 190 -90 39 -18 102 -47 140 -65 38 -17 103 -47 144 -66 175
-83 205 -96 213 -95 4 1 7 -2 7 -8 0 -6 3 -9 8 -8 7 1 42 -14 182 -79 47 -22
112 -53 145 -68 33 -15 116 -54 184 -86 68 -33 125 -59 127 -59 2 0 48 -21
101 -46 54 -26 125 -59 157 -75 57 -27 59 -29 35 -37 -13 -6 -89 -36 -169 -67
-80 -31 -170 -66 -200 -77 -30 -12 -66 -25 -80 -31 -14 -6 -27 -11 -30 -12
-14 -5 -47 -18 -65 -25 -11 -5 -81 -32 -155 -60 -168 -63 -207 -78 -245 -95
-16 -7 -57 -23 -90 -34 -33 -12 -69 -26 -80 -31 -11 -5 -159 -63 -330 -129
-170 -66 -323 -125 -340 -132 -16 -7 -35 -13 -40 -14 -9 -2 -33 -11 -140 -55
-11 -5 -54 -21 -95 -36 -41 -15 -82 -34 -91 -41 -15 -12 -23 -53 -35 -163 -1
-14 -5 -34 -7 -45 -3 -11 -8 -42 -12 -70 -4 -27 -9 -62 -11 -77 -2 -16 -6 -40
-8 -55 -14 -100 -19 -130 -22 -148 -3 -11 -7 -38 -9 -60 -3 -22 -7 -51 -10
-65 -3 -14 -8 -47 -10 -74 -3 -27 -8 -53 -12 -59 -4 -6 0 -8 8 -5 8 3 79 34
159 68 80 34 199 84 265 112 66 28 143 61 172 74 28 13 54 24 57 24 3 0 31 12
63 26 112 49 135 58 146 56 4 -1 7 3 7 8 0 6 6 10 14 10 7 0 44 14 82 31 63
29 112 50 124 54 17 6 90 37 175 75 28 12 55 23 60 24 6 1 15 4 20 8 6 3 66
29 135 58 69 28 141 59 160 67 57 25 123 54 145 63 11 5 81 34 155 65 158 67
173 73 180 71 3 0 16 7 30 17 13 9 32 17 42 17 10 0 18 4 18 10 0 5 3 9 8 8 8
-1 29 6 87 32 22 10 69 30 105 45 440 183 492 206 486 212 -2 3 0 18 4 34 5
16 12 53 15 82 4 28 11 75 17 102 5 28 11 66 14 85 2 19 7 51 10 70 3 19 8 49
10 65 2 17 6 41 9 55 3 14 7 39 10 55 6 49 15 108 21 135 10 55 12 67 18 113
4 27 3 47 -3 47 -5 0 -359 174 -787 387 -429 213 -781 388 -784 388 -8 2
-1484 736 -1489 741 -2 2 1 9 6 16 6 7 52 94 103 193 51 99 111 214 133 255
21 41 60 116 86 165 26 50 79 152 119 228 40 75 69 138 65 138 -25 4 -906 3
-912 -1z"/>
</g>
</svg>
